{
    "asset" : {
        "generator" : "Khronos glTF Blender I/O v3.3.32",
        "version" : "2.0"
    },
    "scene" : 0,
    "scenes" : [
        {
            "name" : "Scene",
            "nodes" : [
                0
            ]
        }
    ],
    "nodes" : [
        {
            "mesh" : 0,
            "name" : "Node",
            "translation" : [
                0,
                1.0992306470870972,
                0.03039160743355751
            ]
        }
    ],
    "materials" : [
        {
            "name" : "mat8",
            "pbrMetallicRoughness" : {
                "baseColorFactor" : [
                    0.9100000262260437,
                    0.05000000074505806,
                    0.029999999329447746,
                    1
                ],
                "metallicFactor" : 0
            }
        },
        {
            "name" : "mat23",
            "pbrMetallicRoughness" : {
                "baseColorFactor" : [
                    0.009999999776482582,
                    0.009999999776482582,
                    0.009999999776482582,
                    1
                ],
                "metallicFactor" : 0
            }
        }
    ],
    "meshes" : [
        {
            "name" : "Node-Mesh",
            "primitives" : [
                {
                    "attributes" : {
                        "POSITION" : 0,
                        "NORMAL" : 1
                    },
                    "indices" : 2,
                    "material" : 0
                },
                {
                    "attributes" : {
                        "POSITION" : 3,
                        "NORMAL" : 4
                    },
                    "indices" : 5,
                    "material" : 1
                }
            ]
        }
    ],
    "accessors" : [
        {
            "bufferView" : 0,
            "componentType" : 5126,
            "count" : 492,
            "max" : [
                0.12362589687108994,
                1.1201030015945435,
                0.6804248094558716
            ],
            "min" : [
                -0.12362620234489441,
                -1.1201030015945435,
                -0.6804248094558716
            ],
            "type" : "VEC3"
        },
        {
            "bufferView" : 1,
            "componentType" : 5126,
            "count" : 492,
            "type" : "VEC3"
        },
        {
            "bufferView" : 2,
            "componentType" : 5123,
            "count" : 492,
            "type" : "SCALAR"
        },
        {
            "bufferView" : 3,
            "componentType" : 5126,
            "count" : 204,
            "max" : [
                0.14138540625572205,
                0.6893481016159058,
                0.2499953955411911
            ],
            "min" : [
                -0.14138540625572205,
                0.19053949415683746,
                -0.24999549984931946
            ],
            "type" : "VEC3"
        },
        {
            "bufferView" : 4,
            "componentType" : 5126,
            "count" : 204,
            "type" : "VEC3"
        },
        {
            "bufferView" : 5,
            "componentType" : 5123,
            "count" : 204,
            "type" : "SCALAR"
        }
    ],
    "bufferViews" : [
        {
            "buffer" : 0,
            "byteLength" : 5904,
            "byteOffset" : 0,
            "target" : 34962
        },
        {
            "buffer" : 0,
            "byteLength" : 5904,
            "byteOffset" : 5904,
            "target" : 34962
        },
        {
            "buffer" : 0,
            "byteLength" : 984,
            "byteOffset" : 11808,
            "target" : 34963
        },
        {
            "buffer" : 0,
            "byteLength" : 2448,
            "byteOffset" : 12792,
            "target" : 34962
        },
        {
            "buffer" : 0,
            "byteLength" : 2448,
            "byteOffset" : 15240,
            "target" : 34962
        },
        {
            "buffer" : 0,
            "byteLength" : 408,
            "byteOffset" : 17688,
            "target" : 34963
        }
    ],
    "buffers" : [
        {
            "byteLength" : 18096,
            "uri" : "data:application/octet-stream;base64,"
        }
    ]
}
